<svg id="visual" viewBox="0 0 1280 400" width="1280" height="400" xmlns="http://www.w3.org/2000/svg" xmlns:xlink="http://www.w3.org/1999/xlink" version="1.1"><rect x="0" y="0" width="1280" height="400" fill="#43496E"></rect><path d="M0 66L30.5 69.7C61 73.3 122 80.7 183 81.7C244 82.7 305 77.3 366 78.5C427 79.7 488 87.3 548.8 90.5C609.7 93.7 670.3 92.3 731.2 86.2C792 80 853 69 914 71.3C975 73.7 1036 89.3 1097 98.2C1158 107 1219 109 1249.5 110L1280 111L1280 0L1249.5 0C1219 0 1158 0 1097 0C1036 0 975 0 914 0C853 0 792 0 731.2 0C670.3 0 609.7 0 548.8 0C488 0 427 0 366 0C305 0 244 0 183 0C122 0 61 0 30.5 0L0 0Z" fill="#A4B996" stroke-linecap="round" stroke-linejoin="miter"></path></svg>