<svg id="visual" viewBox="0 0 1280 400" width="1280" height="400" xmlns="http://www.w3.org/2000/svg" xmlns:xlink="http://www.w3.org/1999/xlink" version="1.1"><rect x="0" y="0" width="1280" height="400" fill="#fff"></rect><path d="M0 80L30.5 75.2C61 70.3 122 60.7 183 64.3C244 68 305 85 366 90.8C427 96.7 488 91.3 548.8 87.8C609.7 84.3 670.3 82.7 731.2 91.5C792 100.3 853 119.7 914 115.2C975 110.7 1036 82.3 1097 72.3C1158 62.3 1219 70.7 1249.5 74.8L1280 79L1280 0L1249.5 0C1219 0 1158 0 1097 0C1036 0 975 0 914 0C853 0 792 0 731.2 0C670.3 0 609.7 0 548.8 0C488 0 427 0 366 0C305 0 244 0 183 0C122 0 61 0 30.5 0L0 0Z" fill="#A4B996" stroke-linecap="round" stroke-linejoin="miter"></path></svg>