<svg id="visual" viewBox="0 0 1280 600" width="1280" height="600" xmlns="http://www.w3.org/2000/svg" xmlns:xlink="http://www.w3.org/1999/xlink" version="1.1"><rect x="0" y="0" width="1280" height="600" fill="#A4B996"></rect><defs><linearGradient id="grad1_0" x1="53.1%" y1="0%" x2="100%" y2="100%"><stop offset="7.333333333333333%" stop-color="#a4b996" stop-opacity="1"></stop><stop offset="92.66666666666667%" stop-color="#a4b996" stop-opacity="1"></stop></linearGradient></defs><defs><linearGradient id="grad2_0" x1="0%" y1="0%" x2="46.9%" y2="100%"><stop offset="7.333333333333333%" stop-color="#a4b996" stop-opacity="1"></stop><stop offset="92.66666666666667%" stop-color="#a4b996" stop-opacity="1"></stop></linearGradient></defs><g transform="translate(1280, 0)"><path d="M0 540C-72.8 535 -145.6 530.1 -206.6 498.9C-267.7 467.7 -316.9 410.3 -354.3 354.3C-391.7 298.2 -417.2 243.6 -446.2 184.8C-475.2 126 -507.6 63 -540 0L0 0Z" fill="#E1C5C1"></path></g><g transform="translate(0, 600)"><path d="M0 -540C75.9 -537.8 151.9 -535.5 206.6 -498.9C261.4 -462.3 295 -391.3 337.3 -337.3C379.5 -283.3 430.4 -246.3 465.6 -192.9C500.9 -139.5 520.4 -69.7 540 0L0 0Z" fill="#E1C5C1"></path></g></svg>