<svg id="visual" viewBox="0 0 1280 600" width="1280" height="600" xmlns="http://www.w3.org/2000/svg" xmlns:xlink="http://www.w3.org/1999/xlink" version="1.1"><rect x="0" y="0" width="1280" height="600" fill="#A4B996"></rect><path d="M0 363L30.5 373.8C61 384.7 122 406.3 183 408.2C244 410 305 392 366 392.8C427 393.7 488 413.3 548.8 413.7C609.7 414 670.3 395 731.2 395.7C792 396.3 853 416.7 914 413.5C975 410.3 1036 383.7 1097 370.3C1158 357 1219 357 1249.5 357L1280 357L1280 601L1249.5 601C1219 601 1158 601 1097 601C1036 601 975 601 914 601C853 601 792 601 731.2 601C670.3 601 609.7 601 548.8 601C488 601 427 601 366 601C305 601 244 601 183 601C122 601 61 601 30.5 601L0 601Z" fill="#e1c5c1"></path><path d="M0 424L30.5 428.5C61 433 122 442 183 443.8C244 445.7 305 440.3 366 440.2C427 440 488 445 548.8 445.5C609.7 446 670.3 442 731.2 442.5C792 443 853 448 914 454.3C975 460.7 1036 468.3 1097 467.7C1158 467 1219 458 1249.5 453.5L1280 449L1280 601L1249.5 601C1219 601 1158 601 1097 601C1036 601 975 601 914 601C853 601 792 601 731.2 601C670.3 601 609.7 601 548.8 601C488 601 427 601 366 601C305 601 244 601 183 601C122 601 61 601 30.5 601L0 601Z" fill="#deb6b0"></path><path d="M0 479L30.5 475.8C61 472.7 122 466.3 183 465.3C244 464.3 305 468.7 366 467.2C427 465.7 488 458.3 548.8 454.7C609.7 451 670.3 451 731.2 460.2C792 469.3 853 487.7 914 489.7C975 491.7 1036 477.3 1097 474.3C1158 471.3 1219 479.7 1249.5 483.8L1280 488L1280 601L1249.5 601C1219 601 1158 601 1097 601C1036 601 975 601 914 601C853 601 792 601 731.2 601C670.3 601 609.7 601 548.8 601C488 601 427 601 366 601C305 601 244 601 183 601C122 601 61 601 30.5 601L0 601Z" fill="#daa79f"></path><path d="M0 530L30.5 523.5C61 517 122 504 183 506.2C244 508.3 305 525.7 366 533.2C427 540.7 488 538.3 548.8 530C609.7 521.7 670.3 507.3 731.2 502.5C792 497.7 853 502.3 914 504.7C975 507 1036 507 1097 511C1158 515 1219 523 1249.5 527L1280 531L1280 601L1249.5 601C1219 601 1158 601 1097 601C1036 601 975 601 914 601C853 601 792 601 731.2 601C670.3 601 609.7 601 548.8 601C488 601 427 601 366 601C305 601 244 601 183 601C122 601 61 601 30.5 601L0 601Z" fill="#d6988e"></path><path d="M0 573L30.5 569.8C61 566.7 122 560.3 183 552.5C244 544.7 305 535.3 366 533C427 530.7 488 535.3 548.8 537C609.7 538.7 670.3 537.3 731.2 537.7C792 538 853 540 914 544.3C975 548.7 1036 555.3 1097 556.5C1158 557.7 1219 553.3 1249.5 551.2L1280 549L1280 601L1249.5 601C1219 601 1158 601 1097 601C1036 601 975 601 914 601C853 601 792 601 731.2 601C670.3 601 609.7 601 548.8 601C488 601 427 601 366 601C305 601 244 601 183 601C122 601 61 601 30.5 601L0 601Z" fill="#d18a7e"></path></svg>