<svg width="55" height="55" viewBox="0 0 55 55" fill="none" xmlns="http://www.w3.org/2000/svg">
<path d="M23.1137 23.26C23.1803 21.9267 23.647 20.9 24.5137 20.18C25.3937 19.4467 26.547 19.08 27.9737 19.08C28.947 19.08 29.7803 19.2533 30.4737 19.6C31.167 19.9333 31.687 20.3933 32.0337 20.98C32.3937 21.5533 32.5737 22.2067 32.5737 22.94C32.5737 23.78 32.3537 24.4933 31.9137 25.08C31.487 25.6533 30.9737 26.04 30.3737 26.24V26.32C31.147 26.56 31.747 26.9867 32.1737 27.6C32.6137 28.2133 32.8337 29 32.8337 29.96C32.8337 30.76 32.647 31.4733 32.2737 32.1C31.9137 32.7267 31.3737 33.22 30.6537 33.58C29.947 33.9267 29.0937 34.1 28.0937 34.1C26.587 34.1 25.3603 33.72 24.4137 32.96C23.467 32.2 22.967 31.08 22.9137 29.6H25.6337C25.6603 30.2533 25.8803 30.78 26.2937 31.18C26.7203 31.5667 27.3003 31.76 28.0337 31.76C28.7137 31.76 29.2337 31.5733 29.5937 31.2C29.967 30.8133 30.1537 30.32 30.1537 29.72C30.1537 28.92 29.9003 28.3467 29.3937 28C28.887 27.6533 28.1003 27.48 27.0337 27.48H26.4537V25.18H27.0337C28.927 25.18 29.8737 24.5467 29.8737 23.28C29.8737 22.7067 29.7003 22.26 29.3537 21.94C29.0203 21.62 28.5337 21.46 27.8937 21.46C27.267 21.46 26.7803 21.6333 26.4337 21.98C26.1003 22.3133 25.907 22.74 25.8537 23.26H23.1137Z" fill="#43496E"/>
</svg>
