<svg width="55" height="55" viewBox="0 0 55 55" fill="none" xmlns="http://www.w3.org/2000/svg">
<path d="M24.1978 30.84C25.4778 29.7733 26.4978 28.8867 27.2578 28.18C28.0178 27.46 28.6511 26.7133 29.1578 25.94C29.6645 25.1667 29.9178 24.4067 29.9178 23.66C29.9178 22.98 29.7578 22.4467 29.4378 22.06C29.1178 21.6733 28.6245 21.48 27.9578 21.48C27.2911 21.48 26.7778 21.7067 26.4178 22.16C26.0578 22.6 25.8711 23.2067 25.8578 23.98H23.1378C23.1911 22.38 23.6645 21.1667 24.5578 20.34C25.4645 19.5133 26.6111 19.1 27.9978 19.1C29.5178 19.1 30.6845 19.5067 31.4978 20.32C32.3111 21.12 32.7178 22.18 32.7178 23.5C32.7178 24.54 32.4378 25.5333 31.8778 26.48C31.3178 27.4267 30.6778 28.2533 29.9578 28.96C29.2378 29.6533 28.2978 30.4933 27.1378 31.48H33.0378V33.8H23.1578V31.72L24.1978 30.84Z" fill="#43496E"/>
</svg>
