<svg width="1280" height="600" viewBox="0 0 1280 600" fill="none" xmlns="http://www.w3.org/2000/svg">
<g clip-path="url(#clip0)">
<path d="M1280 0H0V600H1280V0Z" fill="#E1C5C1"/>
<path d="M1193 372C1289.1 372 1367 294.098 1367 198C1367 101.902 1289.1 24 1193 24C1096.9 24 1019 101.902 1019 198C1019 294.098 1096.9 372 1193 372Z" stroke="#43496E" stroke-width="2"/>
<path d="M792 198C833.421 198 867 164.421 867 123C867 81.5786 833.421 48 792 48C750.579 48 717 81.5786 717 123C717 164.421 750.579 198 792 198Z" stroke="#D18A7E" stroke-width="2"/>
<path d="M423 585C491.483 585 547 529.483 547 461C547 392.517 491.483 337 423 337C354.517 337 299 392.517 299 461C299 529.483 354.517 585 423 585Z" stroke="#6D7F59" stroke-width="2"/>
<path d="M0 483C80.6336 483 146 417.634 146 337C146 256.366 80.6336 191 0 191C-80.6336 191 -146 256.366 -146 337C-146 417.634 -80.6336 483 0 483Z" stroke="#D18A7E" stroke-width="2"/>
</g>
<defs>
<clipPath id="clip0">
<rect width="1280" height="600" fill="white"/>
</clipPath>
</defs>
</svg>
