<svg width="1280" height="600" viewBox="0 0 1280 600" fill="none" xmlns="http://www.w3.org/2000/svg">
<g clip-path="url(#clip0)">
<path d="M1280 0H0V600H1280V0Z" fill="white"/>
<path d="M1320.71 293.701L1285.1 308.344C1249.46 323.172 1178.23 352.459 1110.69 353.851C1043.16 355.243 979.32 328.741 915.824 299.653C852.328 270.565 789.174 238.891 725.894 209.831C662.506 180.758 599.101 154.313 535.444 127.272C471.871 100.429 408.13 73.1882 341.159 70.3317C274.212 67.2904 204.011 88.8182 138.557 74.5085C73.1026 60.1987 12.3959 10.0515 -17.982 -14.8374L-48.3353 -39.9111L-29.2481 -184L3.84603 -179.616C36.9401 -175.232 103.128 -166.464 169.317 -157.696C235.505 -148.929 301.693 -140.161 367.881 -131.393C434.069 -122.625 500.258 -113.857 566.229 -105.118C632.308 -96.3646 698.063 -87.6542 764.142 -78.9007C830.114 -70.1616 896.302 -61.3937 962.49 -52.6259C1028.68 -43.858 1094.87 -35.0902 1161.05 -26.3223C1227.24 -17.5545 1293.43 -8.78659 1326.53 -4.40267L1359.62 -0.0187358L1320.71 293.701Z" fill="#E1C5C1"/>
</g>
<defs>
<clipPath id="clip0">
<rect width="1280" height="600" fill="white"/>
</clipPath>
</defs>
</svg>
