<svg width="1280" height="600" viewBox="0 0 1280 600" fill="none" xmlns="http://www.w3.org/2000/svg">
<g clip-path="url(#clip0)">
<path d="M1280 600H0V0H1280V600Z" fill="#E1C5C1"/>
<path d="M876 -174C972.098 -174 1050 -96.0975 1050 0C1050 96.0975 972.098 174 876 174C779.902 174 702 96.0975 702 0C702 -96.0975 779.902 -174 876 -174Z" stroke="#43496E" stroke-width="2"/>
<path d="M103 150C144.421 150 178 183.579 178 225C178 266.421 144.421 300 103 300C61.5786 300 28 266.421 28 225C28 183.579 61.5786 150 103 150Z" stroke="#43496E" stroke-width="2"/>
<path d="M431 268C509.977 268 574 332.023 574 411C574 489.977 509.977 554 431 554C352.023 554 288 489.977 288 411C288 332.023 352.023 268 431 268Z" stroke="#D18A7E" stroke-width="2"/>
<path d="M1217 300C1287.14 300 1344 356.86 1344 427C1344 497.14 1287.14 554 1217 554C1146.86 554 1090 497.14 1090 427C1090 356.86 1146.86 300 1217 300Z" stroke="#6D7F59" stroke-width="2"/>
</g>
<defs>
<clipPath id="clip0">
<rect width="1280" height="600" fill="white" transform="matrix(1 0 0 -1 0 600)"/>
</clipPath>
</defs>
</svg>
