<svg width="1280" height="600" viewBox="0 0 1280 600" fill="none" xmlns="http://www.w3.org/2000/svg">
<g clip-path="url(#clip0)">
<path d="M1280 0H0V600H1280V0Z" fill="#E1C5C1"/>
<path d="M876 774C972.098 774 1050 696.098 1050 600C1050 503.902 972.098 426 876 426C779.902 426 702 503.902 702 600C702 696.098 779.902 774 876 774Z" stroke="#43496E" stroke-width="2"/>
<path d="M23 474C64.4214 474 98 440.421 98 399C98 357.579 64.4214 324 23 324C-18.4214 324 -52 357.579 -52 399C-52 440.421 -18.4214 474 23 474Z" stroke="#6D7F59" stroke-width="2"/>
<path d="M686 240C744.542 240 792 192.542 792 134C792 75.4578 744.542 28 686 28C627.458 28 580 75.4578 580 134C580 192.542 627.458 240 686 240Z" stroke="#D18A7E" stroke-width="2"/>
<path d="M1067 240C1107.87 240 1141 206.869 1141 166C1141 125.131 1107.87 92 1067 92C1026.13 92 993 125.131 993 166C993 206.869 1026.13 240 1067 240Z" stroke="#6D7F59" stroke-width="2"/>
</g>
<defs>
<clipPath id="clip0">
<rect width="1280" height="600" fill="white"/>
</clipPath>
</defs>
</svg>
