<svg width="1440" height="780" viewBox="0 0 1440 780" fill="none" xmlns="http://www.w3.org/2000/svg">
<g clip-path="url(#clip0)">
<path d="M1440 -0.00012207H0V780H1440V-0.00012207Z" fill="white"/>
<path d="M114.796 684.66C66.6443 686.861 14.4419 699.137 -26.6442 676.784C-67.8792 654.35 -80.4934 607.924 -99.0297 568.328C-116.938 530.073 -131.756 491.713 -132.666 450.308C-133.706 402.977 -134.146 352.865 -104.632 313.399C-73.6087 271.914 -22.8413 243.12 31.5579 230.707C85.0789 218.494 144.207 222.703 193.149 245.448C238.484 266.516 251.912 316.638 287.186 349.504C324.887 384.632 385.751 399.924 406.916 444.62C429.917 493.196 437.745 555.162 405.537 599.443C373.388 643.645 303.511 647.749 247.156 664.267C203.762 676.986 160.444 682.573 114.796 684.66Z" fill="#8F9E7F"/>
<path d="M431.823 556.081C550.5 538.598 661.378 490.439 752.576 420.601C842.64 351.633 886.909 255.573 943.388 164.336C1013.11 51.7111 1157.44 -56.4082 1122.46 -176.917C1087.58 -297.093 885.048 -302.921 782.966 -388.418C672.741 -480.734 647.606 -645.081 504.054 -694.856C354.433 -746.734 171.322 -717.863 23.7471 -651.668C-120.988 -586.747 -219.301 -464.25 -291.032 -338.217C-356.541 -223.116 -352.586 -96.5446 -363.96 29.5358C-375.957 162.535 -452.79 317.458 -359.448 420.201C-264.927 524.24 -71.1167 493.354 81.1851 519.508C198.681 539.686 311.975 573.737 431.823 556.081Z" fill="#E1C5C1"/>
<path d="M1551.89 1370.96C1636.55 1377.05 1728.33 1410.98 1800.56 1349.19C1873.06 1287.17 1895.23 1158.83 1927.82 1049.37C1959.31 943.618 1985.36 837.574 1986.96 723.113C1988.79 592.27 1989.56 453.738 1937.67 344.637C1883.13 229.956 1793.87 150.357 1698.23 116.041C1604.14 82.2794 1500.18 93.9153 1414.14 156.792C1334.43 215.033 1310.83 353.591 1248.81 444.447C1182.53 541.555 1075.52 583.829 1038.31 707.39C997.872 841.673 984.109 1012.97 1040.73 1135.39C1097.26 1257.58 1220.11 1268.92 1319.19 1314.59C1395.48 1349.75 1471.64 1365.19 1551.89 1370.96Z" fill="#DAE2D5"/>
</g>
<defs>
<clipPath id="clip0">
<rect width="1440" height="780" fill="white"/>
</clipPath>
</defs>
</svg>
