<svg width="1280" height="600" viewBox="0 0 1280 600" fill="none" xmlns="http://www.w3.org/2000/svg">
<g clip-path="url(#clip0)">
<path d="M1280 0H0V600H1280V0Z" fill="white"/>
<path d="M1280 170.786L1249.5 182.947C1219 195.108 1158 219.429 1097 201.796C1036 184.163 975 124.576 914 103.052C853 81.6489 761.8 83.0447 701 92.7732C640.1 102.502 609.7 120.563 548.8 135.156C488 149.749 427 176.016 366 169.814C305 163.49 244 124.576 183 108.159C122 91.7422 61 97.8226 30.5 100.863L0 103.903V-25H30.5C61 -25 122 -25 183 -25C244 -25 305 -25 366 -25C427 -25 488 -25 548.8 -25C609.7 -25 670.3 -25 731.2 -25C792 -25 853 -25 914 -25C975 -25 1036 -25 1097 -25C1158 -25 1219 -25 1249.5 -25H1280V170.786Z" fill="#A4B996"/>
<path d="M0 439.214L30.5 427.053C61 414.892 122 390.571 183 408.204C244 425.837 305 485.424 366 506.948C427 528.351 518.2 526.955 579 517.227C639.9 507.498 670.3 489.437 731.2 474.844C792 460.251 853 433.984 914 440.186C975 446.51 1036 485.424 1097 501.841C1158 518.258 1219 512.177 1249.5 509.137L1280 506.097V635H1249.5C1219 635 1158 635 1097 635C1036 635 975 635 914 635C853 635 792 635 731.2 635C670.3 635 609.7 635 548.8 635C488 635 427 635 366 635C305 635 244 635 183 635C122 635 61 635 30.5 635H0V439.214Z" fill="#A4B996"/>
</g>
<defs>
<clipPath id="clip0">
<rect width="1280" height="600" fill="white"/>
</clipPath>
</defs>
</svg>
