<svg width="1280" height="600" viewBox="0 0 1280 600" fill="none" xmlns="http://www.w3.org/2000/svg">
<g clip-path="url(#clip0)">
<path d="M1280 0H0V600H1280V0Z" fill="#DAE2D5"/>
<path d="M0 442L30.5 431.7C61 421.3 122 400.7 183 395.2C244 389.7 305 399.3 366 410.3C427 421.3 488 433.7 548.8 444.7C609.7 455.7 670.3 465.3 731.2 475.2C792 485 853 495 914 491.8C975 488.7 1036 472.3 1097 475.3C1158 478.3 1219 500.7 1249.5 511.8L1280 523V601H1249.5C1219 601 1158 601 1097 601C1036 601 975 601 914 601C853 601 792 601 731.2 601C670.3 601 609.7 601 548.8 601C488 601 427 601 366 601C305 601 244 601 183 601C122 601 61 601 30.5 601H0V442Z" fill="#2E3A59"/>
</g>
<defs>
<clipPath id="clip0">
<rect width="1280" height="600" fill="white"/>
</clipPath>
</defs>
</svg>
