<svg width="1280" height="600" viewBox="0 0 1280 600" fill="none" xmlns="http://www.w3.org/2000/svg">
<g clip-path="url(#clip0)">
<path d="M1280 0H0V600H1280V0Z" fill="#E1C5C1"/>
<path d="M1280 0H0V600H1280V0Z" fill="#E1C5C1"/>
<path d="M201.056 -124.059L221.646 -89.152C242.235 -54.245 283.413 15.5688 322.597 88.9182C362.067 161.762 399.258 238.647 439.581 309.977C479.905 381.306 522.792 448.089 582.85 483.949C643.009 519.866 719.669 525.813 808.876 510.21C897.698 495.057 998.681 458.802 1075.46 465.48C1152.23 472.158 1204.8 521.769 1256.8 572.389C1309.09 622.505 1360.52 674.135 1386.52 699.446L1412.23 725.261L1725.5 169.666L1694.94 152.437C1664.38 135.208 1603.27 100.75 1542.16 66.2926C1481.05 31.8349 1419.93 -2.62291 1358.82 -37.0807C1297.71 -71.5385 1236.59 -105.996 1175.68 -140.341C1114.67 -174.743 1053.96 -208.974 992.942 -243.376C932.03 -277.72 870.916 -312.178 809.803 -346.636C748.69 -381.094 687.577 -415.552 626.464 -450.009C565.351 -484.467 504.238 -518.925 473.681 -536.154L443.125 -553.383L201.056 -124.059Z" fill="#A4B996"/>
<path d="M581.641 -314.825L600.102 -285.468C618.563 -256.11 655.486 -197.395 690.787 -135.804C726.319 -74.6234 759.999 -10.1568 796.226 49.7909C832.454 109.739 870.766 165.989 923.033 197.083C975.386 228.227 1041.14 234.985 1117.12 224.228C1192.78 213.831 1278.35 186.28 1344.22 193.646C1410.1 201.013 1456.28 243.296 1502.01 286.402C1547.96 329.096 1593.22 373.023 1616.09 394.575L1638.72 416.539L1893.5 -35.3343L1866.93 -50.3142C1840.36 -65.2941 1787.23 -95.254 1734.09 -125.214C1680.96 -155.174 1627.82 -185.134 1574.68 -215.093C1521.55 -245.053 1468.41 -275.013 1415.45 -304.875C1362.4 -334.785 1309.61 -364.549 1256.57 -394.46C1203.6 -424.321 1150.47 -454.281 1097.33 -484.241C1044.2 -514.201 991.061 -544.161 937.926 -574.12C884.79 -604.08 831.654 -634.04 805.086 -649.02L778.518 -664L581.641 -314.825Z" fill="#43496E"/>
</g>
<defs>
<clipPath id="clip0">
<rect width="1280" height="600" fill="white"/>
</clipPath>
</defs>
</svg>
