<svg width="1280" height="600" viewBox="0 0 1280 600" fill="none" xmlns="http://www.w3.org/2000/svg">
<path d="M1280 0H0V600H1280V0Z" fill="#E1C5C1"/>
<path d="M0 360.758L30.5 353.416C61 345.851 122 331.167 183 340.067C244 348.966 305 381.449 366 395.911C427 410.372 488 406.812 548.8 397.023C609.7 387.456 670.3 371.882 731.2 388.569C792 405.255 853 454.202 914 486.017C975 518.055 1036 532.739 1097 516.053C1158 499.366 1219 451.309 1249.5 427.059L1280 403.03V96H1249.5C1219 96 1158 96 1097 96C1036 96 975 96 914 96C853 96 792 96 731.2 96C670.3 96 609.7 96 548.8 96C488 96 427 96 366 96C305 96 244 96 183 96C122 96 61 96 30.5 96H0V360.758Z" fill="#9B8E9C"/>
<path d="M0 153.77L30.5 149.506C61 145.113 122 136.584 183 141.753C244 146.922 305 165.788 366 174.187C427 182.586 488 180.519 548.8 174.833C609.7 169.277 670.3 160.231 731.2 169.923C792 179.614 853 208.042 914 226.521C975 245.128 1036 253.656 1097 243.965C1158 234.274 1219 206.362 1249.5 192.278L1280 178.322V0H1249.5C1219 0 1158 0 1097 0C1036 0 975 0 914 0C853 0 792 0 731.2 0C670.3 0 609.7 0 548.8 0C488 0 427 0 366 0C305 0 244 0 183 0C122 0 61 0 30.5 0H0V153.77Z" fill="#43496E"/>
</svg>
