<svg width="1280" height="600" viewBox="0 0 1280 600" fill="none" xmlns="http://www.w3.org/2000/svg">
<path d="M1280 0H0V600H1280V0Z" fill="#D18A7E"/>
<path d="M0 307.544L30.5 326.647C61 345.749 122 383.953 183 356.255C244 328.557 305 234.956 366 201.146C427 167.526 488 193.505 548.8 208.786C609.7 224.068 670.3 228.653 731.2 251.575C792 274.498 853 315.758 914 306.016C975 296.083 1036 234.956 1097 209.168C1158 183.381 1219 192.932 1249.5 197.707L1280 202.483V0H1249.5C1219 0 1158 0 1097 0C1036 0 975 0 914 0C853 0 792 0 731.2 0C670.3 0 609.7 0 548.8 0C488 0 427 0 366 0C305 0 244 0 183 0C122 0 61 0 30.5 0H0V307.544Z" fill="#A7CADD"/>
</svg>
