<svg id="visual" viewBox="0 0 1280 600" width="1280" height="600" xmlns="http://www.w3.org/2000/svg" xmlns:xlink="http://www.w3.org/1999/xlink" version="1.1"><rect x="0" y="0" width="1280" height="600" fill="#E1C5C1"></rect><path d="M0 119L30.5 115.7C61 112.3 122 105.7 183 109.7C244 113.7 305 128.3 366 134.8C427 141.3 488 139.7 548.8 135.3C609.7 131 670.3 124 731.2 131.5C792 139 853 161 914 175.3C975 189.7 1036 196.3 1097 188.8C1158 181.3 1219 159.7 1249.5 148.8L1280 138L1280 0L1249.5 0C1219 0 1158 0 1097 0C1036 0 975 0 914 0C853 0 792 0 731.2 0C670.3 0 609.7 0 548.8 0C488 0 427 0 366 0C305 0 244 0 183 0C122 0 61 0 30.5 0L0 0Z" fill="#43496E" stroke-linecap="round" stroke-linejoin="miter"></path></svg>