<svg width="1280" height="1427" viewBox="0 0 1280 1427" fill="none" xmlns="http://www.w3.org/2000/svg">
<path d="M1280 0H0V1427H1280V0Z" fill="#E1C5C1"/>
<path d="M0 133L30.5 139.2C61 145.3 122 157.7 183 166.7C244 175.7 305 181.3 366 176.3C427 171.3 488 155.7 548.8 142.2C609.7 128.7 670.3 117.3 731.2 112.5C792 107.7 853 109.3 914 125.2C975 141 1036 171 1097 165.3C1158 159.7 1219 118.3 1249.5 97.7L1280 77V0H1249.5C1219 0 1158 0 1097 0C1036 0 975 0 914 0C853 0 792 0 731.2 0C670.3 0 609.7 0 548.8 0C488 0 427 0 366 0C305 0 244 0 183 0C122 0 61 0 30.5 0H0V133Z" fill="#43496E"/>
</svg>
