<svg width="125" height="125" viewBox="0 0 125 125" fill="none" xmlns="http://www.w3.org/2000/svg">
<g clip-path="url(#clip0)">
<path d="M93.721 11.9063C87.3637 6.22684 79.5781 2.3885 71.2018 0.804379C62.8256 -0.779748 54.176 -0.0496908 46.1838 2.91598C38.1915 5.88166 31.1594 10.9707 25.844 17.6353C20.5287 24.3 17.1314 32.288 16.0178 40.7396C15.0177 48.1503 15.8176 55.6928 18.3497 62.7289C20.8818 69.765 25.0717 76.0876 30.5647 81.1615C33.9616 84.1403 36.7026 87.7923 38.6141 91.8861C40.5256 95.9798 41.5658 100.426 41.6689 104.943V105.781C41.6744 110.877 43.701 115.762 47.304 119.365C50.907 122.968 55.7922 124.995 60.8876 125H64.1168C69.2122 124.995 74.0974 122.968 77.7004 119.365C81.3034 115.762 83.33 110.877 83.3355 105.781V102.922C83.4135 98.9295 84.353 95.0011 86.0897 91.4054C87.8264 87.8097 90.3194 84.6316 93.398 82.0886C98.3907 77.7159 102.397 72.3322 105.152 66.2942C107.907 60.2562 109.347 53.7017 109.378 47.065C109.409 40.4283 108.028 33.8608 105.329 27.7977C102.63 21.7346 98.6732 16.3143 93.721 11.8959V11.9063ZM64.1168 114.583H60.8876C58.554 114.581 56.3168 113.652 54.6667 112.002C53.0165 110.352 52.0883 108.115 52.0855 105.781C52.0855 105.781 52.0491 104.427 52.0439 104.167H72.9189V105.781C72.9161 108.115 71.9879 110.352 70.3378 112.002C68.6876 113.652 66.4504 114.581 64.1168 114.583V114.583ZM86.5126 74.2657C80.5826 79.4091 76.3 86.1862 74.2001 93.75H67.7105V56.3334C70.7465 55.26 73.3767 53.2749 75.2413 50.6495C77.1059 48.0242 78.1139 44.8868 78.1272 41.6667C78.1272 40.2854 77.5785 38.9606 76.6017 37.9839C75.625 37.0071 74.3002 36.4584 72.9189 36.4584C71.5375 36.4584 70.2128 37.0071 69.236 37.9839C68.2593 38.9606 67.7105 40.2854 67.7105 41.6667C67.7105 43.0481 67.1618 44.3728 66.1851 45.3496C65.2083 46.3263 63.8835 46.8751 62.5022 46.8751C61.1209 46.8751 59.7961 46.3263 58.8194 45.3496C57.8426 44.3728 57.2939 43.0481 57.2939 41.6667C57.2939 40.2854 56.7451 38.9606 55.7684 37.9839C54.7916 37.0071 53.4669 36.4584 52.0855 36.4584C50.7042 36.4584 49.3794 37.0071 48.4027 37.9839C47.4259 38.9606 46.8772 40.2854 46.8772 41.6667C46.8906 44.8868 47.8985 48.0242 49.7631 50.6495C51.6277 53.2749 54.2579 55.26 57.2939 56.3334V93.75H50.4085C48.0595 85.9855 43.6539 79.001 37.6585 73.5365C32.5697 68.7948 28.9435 62.6964 27.2078 55.9609C25.4721 49.2254 25.6993 42.134 27.8627 35.5235C30.026 28.9129 34.0352 23.0592 39.4171 18.653C44.7991 14.2468 51.3291 11.4721 58.2366 10.6563C59.6685 10.4965 61.1082 10.4165 62.5491 10.4167C71.4948 10.3901 80.1307 13.6908 86.7782 19.6771C90.6308 23.1125 93.7092 27.3276 95.8092 32.0429C97.9093 36.7582 98.9831 41.866 98.9594 47.0278C98.9358 52.1895 97.8153 57.2873 95.6721 61.9832C93.5289 66.679 90.4121 70.8657 86.5283 74.2657H86.5126Z" fill="#E1C5C1"/>
</g>
<defs>
<clipPath id="clip0">
<rect width="125" height="125" fill="white"/>
</clipPath>
</defs>
</svg>
