<svg width="125" height="125" viewBox="0 0 125 125" fill="none" xmlns="http://www.w3.org/2000/svg">
<g clip-path="url(#clip0)">
<path d="M93.75 36.4587C93.75 37.4888 93.4445 38.4958 92.8722 39.3523C92.2999 40.2088 91.4865 40.8763 90.5348 41.2705C89.5831 41.6647 88.5359 41.7679 87.5256 41.5669C86.5153 41.366 85.5872 40.8699 84.8588 40.1415C84.1304 39.4131 83.6344 38.4851 83.4334 37.4748C83.2324 36.4644 83.3356 35.4172 83.7298 34.4655C84.124 33.5138 84.7916 32.7004 85.6481 32.1281C86.5046 31.5558 87.5116 31.2503 88.5417 31.2503C89.923 31.2503 91.2478 31.7991 92.2245 32.7758C93.2013 33.7526 93.75 35.0773 93.75 36.4587ZM72.9167 46.8753C71.8866 46.8753 70.8796 47.1808 70.0231 47.7531C69.1666 48.3254 68.499 49.1388 68.1048 50.0905C67.7106 51.0422 67.6074 52.0894 67.8084 53.0998C68.0094 54.1101 68.5054 55.0381 69.2338 55.7665C69.9622 56.4949 70.8903 56.991 71.9006 57.1919C72.9109 57.3929 73.9581 57.2897 74.9098 56.8955C75.8615 56.5013 76.6749 55.8338 77.2472 54.9773C77.8195 54.1208 78.125 53.1138 78.125 52.0837C78.125 50.7023 77.5763 49.3776 76.5995 48.4008C75.6228 47.4241 74.298 46.8753 72.9167 46.8753ZM57.2917 62.5003C56.2616 62.5003 55.2546 62.8058 54.3981 63.3781C53.5416 63.9504 52.874 64.7638 52.4798 65.7155C52.0856 66.6672 51.9824 67.7144 52.1834 68.7248C52.3844 69.7351 52.8804 70.6631 53.6088 71.3915C54.3372 72.1199 55.2653 72.616 56.2756 72.8169C57.2859 73.0179 58.3331 72.9147 59.2848 72.5205C60.2365 72.1263 61.0499 71.4588 61.6222 70.6023C62.1945 69.7458 62.5 68.7388 62.5 67.7087C62.5 66.3273 61.9513 65.0026 60.9745 64.0258C59.9978 63.0491 58.673 62.5003 57.2917 62.5003ZM124.302 15.4066L123.911 16.5055C116.089 38.2139 108.583 58.8545 93.75 77.1878V78.1253C93.7408 86.103 92.0687 93.9911 88.8404 101.286C85.612 108.582 80.8983 115.124 75 120.495C71.8776 123.376 67.7899 124.983 63.5417 125C59.1202 124.987 54.8843 123.222 51.7607 120.093C48.6372 116.963 46.8805 112.724 46.875 108.302V102.308C43.0317 101.068 39.5333 98.9434 36.6615 96.1045L36.4583 95.9066L24.5156 107.849C23.5333 108.798 22.2177 109.323 20.8521 109.311C19.4865 109.299 18.1802 108.752 17.2145 107.786C16.2488 106.82 15.7011 105.514 15.6892 104.148C15.6773 102.783 16.2023 101.467 17.151 100.485L29.0938 88.542L28.8906 88.3441C26.0498 85.4689 23.9203 81.9696 22.6719 78.1253H17.5156C12.8724 78.1212 8.42039 76.2752 5.13662 72.9924C1.85284 69.7096 0.005516 65.2582 0 60.6149C0.0092129 56.0801 1.75783 51.7216 4.88542 48.4378C10.3307 42.8454 16.8687 38.4335 24.0925 35.4766C31.3163 32.5197 39.0713 31.0811 46.875 31.2503H47.8125C66.1458 16.4222 86.7708 8.91699 108.469 1.09929L109.594 0.698244C111.647 -0.0565407 113.873 -0.207873 116.009 0.262127C118.146 0.732128 120.103 1.80382 121.65 3.35058C123.197 4.89734 124.268 6.85452 124.738 8.99087C125.208 11.1272 125.057 13.3535 124.302 15.4066V15.4066ZM17.5156 67.7087H21.3542C21.7454 63.1197 23.3467 58.7165 25.9948 54.9482C28.9013 50.7665 32.0472 46.7563 35.4167 42.9378C26.6798 44.7462 18.6925 49.1502 12.5 55.5732C11.1826 56.9231 10.4364 58.7289 10.4167 60.6149C10.4194 62.4963 11.1684 64.2999 12.4993 65.6297C13.8301 66.9596 15.6342 67.7073 17.5156 67.7087V67.7087ZM81.7708 89.8545C78.0351 93.1247 74.1192 96.1833 70.0417 99.016C66.2703 101.638 61.8705 103.213 57.2917 103.578V108.302C57.2944 109.968 57.9578 111.565 59.1363 112.743C60.3148 113.92 61.9122 114.582 63.5781 114.584C65.2297 114.559 66.8124 113.918 68.0156 112.787C74.7301 106.64 79.5097 98.672 81.7708 89.8545ZM114.255 10.7451C114.116 10.5907 113.933 10.4836 113.73 10.4388C113.528 10.394 113.316 10.4137 113.125 10.4951L112.005 10.9014C86.776 19.9899 64.9896 27.8441 46.2292 46.5993C41.9257 51.0371 38.0087 55.834 34.5208 60.9378C32.3993 63.9491 31.4099 67.6131 31.7272 71.283C32.0445 74.9529 33.6482 78.3927 36.2552 80.9951L44.026 88.7555C46.6272 91.3606 50.0646 92.9636 53.7322 93.2819C57.3998 93.6001 61.0619 92.6132 64.0729 90.4951C69.1739 87.0078 73.9674 83.0907 78.401 78.7868C97.151 60.0368 105.016 38.2295 114.109 12.9899L114.505 11.891C114.59 11.698 114.611 11.4833 114.566 11.2775C114.521 11.0718 114.412 10.8855 114.255 10.7451V10.7451Z" fill="#E1C5C1"/>
</g>
<defs>
<clipPath id="clip0">
<rect width="125" height="125" fill="white"/>
</clipPath>
</defs>
</svg>
