<svg width="125" height="125" viewBox="0 0 125 125" fill="none" xmlns="http://www.w3.org/2000/svg">
<g clip-path="url(#clip0)">
<path d="M46.875 62.5C53.0557 62.5 59.0975 60.6672 64.2366 57.2334C69.3756 53.7996 73.381 48.9191 75.7462 43.2089C78.1115 37.4987 78.7303 31.2154 77.5245 25.1534C76.3187 19.0915 73.3425 13.5233 68.9721 9.15293C64.6017 4.78254 59.0335 1.80626 52.9716 0.600474C46.9097 -0.605314 40.6263 0.0135402 34.9161 2.37878C29.206 4.74402 24.3254 8.74941 20.8916 13.8884C17.4578 19.0275 15.625 25.0693 15.625 31.25C15.6333 39.5355 18.9283 47.4792 24.7871 53.338C30.6458 59.1967 38.5895 62.4917 46.875 62.5ZM46.875 10.4167C50.9954 10.4167 55.0234 11.6385 58.4494 13.9277C61.8754 16.2169 64.5457 19.4707 66.1225 23.2774C67.6993 27.0842 68.1119 31.2731 67.308 35.3144C66.5042 39.3557 64.52 43.0678 61.6064 45.9814C58.6928 48.895 54.9806 50.8792 50.9394 51.683C46.8981 52.4869 42.7092 52.0743 38.9024 50.4975C35.0956 48.9207 31.8419 46.2504 29.5527 42.8244C27.2635 39.3984 26.0417 35.3705 26.0417 31.25C26.0417 25.7247 28.2366 20.4256 32.1436 16.5186C36.0506 12.6116 41.3497 10.4167 46.875 10.4167V10.4167Z" fill="#E1C5C1"/>
<path d="M46.875 72.9167C34.4476 72.9318 22.5336 77.8753 13.7461 86.6628C4.95863 95.4503 0.0151612 107.364 0 119.792C0 121.173 0.548734 122.498 1.52549 123.475C2.50224 124.451 3.827 125 5.20833 125C6.58967 125 7.91443 124.451 8.89118 123.475C9.86793 122.498 10.4167 121.173 10.4167 119.792C10.4167 110.122 14.2578 100.849 21.0951 94.0118C27.9323 87.1745 37.2057 83.3334 46.875 83.3334C56.5444 83.3334 65.8177 87.1745 72.6549 94.0118C79.4922 100.849 83.3333 110.122 83.3333 119.792C83.3333 121.173 83.8821 122.498 84.8588 123.475C85.8356 124.451 87.1603 125 88.5417 125C89.923 125 91.2478 124.451 92.2245 123.475C93.2013 122.498 93.75 121.173 93.75 119.792C93.7348 107.364 88.7914 95.4503 80.0039 86.6628C71.2164 77.8753 59.3024 72.9318 46.875 72.9167V72.9167Z" fill="#E1C5C1"/>
<path d="M114.585 41.0156C111.686 41.16 108.963 42.4467 107.01 44.5941C105.058 46.7415 104.036 49.5748 104.168 52.474C104.3 49.5748 103.278 46.7415 101.325 44.5941C99.3731 42.4467 96.6498 41.16 93.7512 41.0156C90.8527 41.16 88.1293 42.4467 86.1771 44.5941C84.2249 46.7415 83.2029 49.5748 83.3346 52.474C83.3346 61.4844 95.0846 72.0417 100.939 76.7396C101.855 77.4733 102.994 77.873 104.168 77.873C105.342 77.873 106.481 77.4733 107.397 76.7396C113.251 72.0521 125.001 61.4844 125.001 52.474C125.133 49.5748 124.111 46.7415 122.159 44.5941C120.206 42.4467 117.483 41.16 114.585 41.0156V41.0156Z" fill="#E1C5C1"/>
</g>
<defs>
<clipPath id="clip0">
<rect width="125" height="125" fill="white"/>
</clipPath>
</defs>
</svg>
